<svg width="116" height="117" viewBox="0 0 116 117" fill="none" xmlns="http://www.w3.org/2000/svg">
<mask id="path-1-inside-1_7_88" fill="white">
<path fill-rule="evenodd" clip-rule="evenodd" d="M116 58.5C116 90.8087 90.0325 117 58 117C47.1068 117 36.915 113.971 28.2073 108.703L2.73744 115.149L10.1372 91.5512C3.74198 82.1477 0 70.7646 0 58.5C0 26.1913 25.9675 0 58 0C90.0325 0 116 26.1913 116 58.5ZM36 51C31.5817 51 28 54.5817 28 59C28 63.4183 31.5817 67 36 67H81C85.4183 67 89 63.4183 89 59C89 54.5817 85.4183 51 81 51H36Z"/>
</mask>
<path fill-rule="evenodd" clip-rule="evenodd" d="M116 58.5C116 90.8087 90.0325 117 58 117C47.1068 117 36.915 113.971 28.2073 108.703L2.73744 115.149L10.1372 91.5512C3.74198 82.1477 0 70.7646 0 58.5C0 26.1913 25.9675 0 58 0C90.0325 0 116 26.1913 116 58.5ZM36 51C31.5817 51 28 54.5817 28 59C28 63.4183 31.5817 67 36 67H81C85.4183 67 89 63.4183 89 59C89 54.5817 85.4183 51 81 51H36Z" fill="url(#paint0_linear_7_88)"/>
<path d="M28.2073 108.703L29.7603 106.136L28.6871 105.487L27.4712 105.794L28.2073 108.703ZM2.73744 115.149L-0.125122 114.252L-1.73169 119.375L3.47353 118.057L2.73744 115.149ZM10.1372 91.5512L12.9998 92.4489L13.434 91.0641L12.6179 89.8641L10.1372 91.5512ZM58 120C91.7136 120 119 92.4412 119 58.5H113C113 89.1761 88.3514 114 58 114V120ZM26.6544 111.27C35.8162 116.813 46.5429 120 58 120V114C47.6707 114 38.0138 111.13 29.7603 106.136L26.6544 111.27ZM3.47353 118.057L28.9434 111.611L27.4712 105.794L2.00135 112.241L3.47353 118.057ZM7.27466 90.6536L-0.125122 114.252L5.6 116.047L12.9998 92.4489L7.27466 90.6536ZM-3 58.5C-3 71.3835 0.932708 83.3517 7.65654 93.2383L12.6179 89.8641C6.55124 80.9438 3 70.1457 3 58.5H-3ZM58 -3C24.2864 -3 -3 24.5588 -3 58.5H3C3 27.8239 27.6486 3 58 3V-3ZM119 58.5C119 24.5588 91.7136 -3 58 -3V3C88.3514 3 113 27.8239 113 58.5H119ZM31 59C31 56.2386 33.2386 54 36 54V48C29.9249 48 25 52.9249 25 59H31ZM36 64C33.2386 64 31 61.7614 31 59H25C25 65.0751 29.9249 70 36 70V64ZM81 64H36V70H81V64ZM86 59C86 61.7614 83.7614 64 81 64V70C87.0751 70 92 65.0751 92 59H86ZM81 54C83.7614 54 86 56.2386 86 59H92C92 52.9249 87.0751 48 81 48V54ZM36 54H81V48H36V54Z" fill="black" mask="url(#path-1-inside-1_7_88)"/>
<defs>
<linearGradient id="paint0_linear_7_88" x1="58" y1="0" x2="58" y2="117" gradientUnits="userSpaceOnUse">
<stop stop-color="#6100FF"/>
<stop offset="1" stop-color="#FF00E6"/>
</linearGradient>
</defs>
</svg>
