<svg width="116" height="117" viewBox="0 0 116 117" fill="none" xmlns="http://www.w3.org/2000/svg">
<path fill-rule="evenodd" clip-rule="evenodd" d="M116 58.5C116 90.8087 90.0325 117 58 117C47.1068 117 36.915 113.971 28.2073 108.703L2.73744 115.149L10.1372 91.5512C3.74198 82.1477 0 70.7646 0 58.5C0 26.1913 25.9675 0 58 0C90.0325 0 116 26.1913 116 58.5ZM36 51C31.5817 51 28 54.5817 28 59C28 63.4183 31.5817 67 36 67H81C85.4183 67 89 63.4183 89 59C89 54.5817 85.4183 51 81 51H36Z" fill="white"/>
</svg>
