<svg width="112" height="125" viewBox="0 0 112 125" fill="none" xmlns="http://www.w3.org/2000/svg">
<path d="M107.723 78.7011C103.749 69.9102 87.7226 64.2011 87.7226 64.2011L24.2226 77.2011C24.2226 77.2011 18.7821 78.8648 15.2226 78.7011C12.4298 78.5727 9.22263 74.7011 9.22263 74.7011C9.22263 74.7011 0.511857 91.0775 2.22262 100.201C4.97949 114.904 18.2984 121.684 33.2226 122.701C55.2226 124.201 71.7226 124.201 90.7226 113.201C103.721 105.676 113.909 92.3879 107.723 78.7011Z" fill="white" stroke="black" stroke-width="3"/>
<ellipse cx="52.7226" cy="42.7011" rx="41" ry="40.5" fill="white"/>
<path d="M41.2226 81.7011C26.7226 78.2011 17.4433 69.17 11.7226 53.2011C3.95964 31.531 22.2103 6.21036 44.9646 2.73219C61.4664 0.209767 74.6882 3.77221 86.9646 20.2322C103.723 42.7011 82.2226 82.7013 59.2226 82.7013" stroke="black" stroke-width="4" stroke-linecap="round"/>
<path d="M13.7226 52.7011C13.7226 52.7011 15.3119 56.9794 13.7226 58.7011C12.0009 60.5663 9.11264 60.3956 7.22262 58.7011C5.45392 57.1154 5.3793 54.9218 6.22262 52.7011C6.90885 50.894 9.72262 49.2011 9.72262 49.2011C12.2226 46.7011 20.7226 37.7011 24.7226 31.7011C25.9141 29.914 26.2226 24.7011 26.2226 24.7011C42.7226 16.7011 54.5138 13.1066 74.7226 10.2011C74.7226 10.2011 85.1099 6.09744 88.7226 10.2011C91.332 13.1651 91.8893 16.6211 90.2226 20.2011C88.9353 22.9662 84.2226 25.2011 84.2226 25.2011L72.2226 32.2011C72.2226 32.2011 70.2961 44.5546 64.7226 49.2011C62.639 50.9381 58.7226 52.7011 58.7226 52.7011C58.7226 52.7011 47.1799 55.479 40.7226 52.7011C35.0137 50.2452 35.3712 42.6052 29.2226 41.7011C21.879 40.6214 13.7226 52.7011 13.7226 52.7011Z" fill="black" stroke="black" stroke-width="2" stroke-linecap="round"/>
<path d="M84.5 16C84.5 15.1716 83.8284 14.5 83 14.5C82.1716 14.5 81.5 15.1716 81.5 16H84.5ZM81.5 16V27H84.5V16H81.5Z" fill="white"/>
<path d="M84.8905 26.4616C81.2886 27.3503 78.3859 24.2726 75.3905 26.4616C72.1404 28.8366 74.2086 32.658 72.8905 36.4615C71.6312 40.0958 67.8905 41.9616 68.8905 45.4615C69.4708 47.4924 71.4142 47.7165 73.3905 48.4615C77.2448 49.9145 79.9564 48.6819 83.8905 47.4615C92.8579 44.6799 100.562 39.8446 100.891 30.4616C100.98 27.8949 101.078 26.2387 99.8905 23.9616C99.058 22.3654 98.5912 21.0519 96.8905 20.4616C95.7837 20.0774 95.0208 20.1533 93.8905 20.4616C92.5321 20.832 91.9866 21.5776 90.8905 22.4616C89.6008 23.5016 89.3291 24.6395 87.8905 25.4616C86.8183 26.0743 86.0895 26.1657 84.8905 26.4616Z" fill="#FAFF00" stroke="black" stroke-width="3" stroke-linecap="round"/>
<path d="M50.7226 19.7011L48.7226 49.7011" stroke="white" stroke-width="3" stroke-linecap="round"/>
<path d="M60.7226 17.2011L58.2226 49.7011" stroke="white" stroke-width="3" stroke-linecap="round"/>
<path d="M39.1404 104.303C41.6404 104.803 32.9323 103.766 31.6404 100.803C30.8599 99.0136 30.7162 97.5235 31.6404 95.8035C33.3065 92.7026 37.2557 94.3364 40.6404 95.3035C44.1404 96.3035 46.1404 96.8035 49.1404 97.8035C52.2949 98.855 54.0202 100.4 55.6404 103.303C56.6337 105.084 57.2892 106.27 57.1404 108.303C56.9348 111.112 55.4045 112.629 53.1404 114.303C49.6724 116.868 46.3317 116.323 42.1404 115.303C38.9149 114.519 34.061 114.572 34.6404 111.303C35.2238 108.012 46.1404 110.803 43.1404 110.303C40.1941 109.812 37.9981 110.637 35.6404 108.803C33.9732 107.507 31.9725 106.307 32.6404 104.303C33.4431 101.895 36.6513 103.806 39.1404 104.303Z" stroke="black" stroke-width="2.5"/>
</svg>
