<svg width="177" height="83" viewBox="0 0 177 83" fill="none" xmlns="http://www.w3.org/2000/svg">
<rect x="1.5" y="1.5" width="174" height="80" rx="36.5" fill="#D9D9D9" stroke="black" stroke-width="3"/>
<circle cx="29.5" cy="41.5" r="7" fill="#000AFF" stroke="black" stroke-width="3"/>
<circle cx="46.5" cy="25.5" r="7" fill="#EFFF00" stroke="black" stroke-width="3"/>
<circle cx="63.5" cy="41.5" r="7" fill="#FF0000" stroke="black" stroke-width="3"/>
<circle cx="46.5" cy="57.5" r="7" fill="#05FF00" stroke="black" stroke-width="3"/>
<mask id="path-6-inside-1_7_19" fill="white">
<path fill-rule="evenodd" clip-rule="evenodd" d="M126.318 17C122.728 17 119.818 19.9101 119.818 23.5V34.8182H108.5C104.91 34.8182 102 37.7283 102 41.3182V42.7955C102 46.3853 104.91 49.2955 108.5 49.2955H119.818V59.5C119.818 63.0899 122.728 66 126.318 66H127.795C131.385 66 134.295 63.0899 134.295 59.5V49.2955H144.5C148.09 49.2955 151 46.3853 151 42.7955V41.3182C151 37.7283 148.09 34.8182 144.5 34.8182H134.295V23.5C134.295 19.9101 131.385 17 127.795 17H126.318ZM134.295 34.8182H119.818V49.2955H134.295V34.8182Z"/>
</mask>
<path fill-rule="evenodd" clip-rule="evenodd" d="M126.318 17C122.728 17 119.818 19.9101 119.818 23.5V34.8182H108.5C104.91 34.8182 102 37.7283 102 41.3182V42.7955C102 46.3853 104.91 49.2955 108.5 49.2955H119.818V59.5C119.818 63.0899 122.728 66 126.318 66H127.795C131.385 66 134.295 63.0899 134.295 59.5V49.2955H144.5C148.09 49.2955 151 46.3853 151 42.7955V41.3182C151 37.7283 148.09 34.8182 144.5 34.8182H134.295V23.5C134.295 19.9101 131.385 17 127.795 17H126.318ZM134.295 34.8182H119.818V49.2955H134.295V34.8182Z" fill="#272727"/>
<path d="M122.818 23.5C122.818 21.567 124.385 20 126.318 20V14C121.071 14 116.818 18.2533 116.818 23.5H122.818ZM122.818 34.8182V23.5H116.818V34.8182H122.818ZM108.5 37.8182H119.818V31.8182H108.5V37.8182ZM105 41.3182C105 39.3852 106.567 37.8182 108.5 37.8182V31.8182C103.253 31.8182 99 36.0715 99 41.3182H105ZM105 42.7955V41.3182H99V42.7955H105ZM108.5 46.2955C106.567 46.2955 105 44.7285 105 42.7955H99C99 48.0422 103.253 52.2955 108.5 52.2955V46.2955ZM119.818 46.2955H108.5V52.2955H119.818V46.2955ZM122.818 59.5V49.2955H116.818V59.5H122.818ZM126.318 63C124.385 63 122.818 61.433 122.818 59.5H116.818C116.818 64.7467 121.071 69 126.318 69V63ZM127.795 63H126.318V69H127.795V63ZM131.295 59.5C131.295 61.433 129.728 63 127.795 63V69C133.042 69 137.295 64.7467 137.295 59.5H131.295ZM131.295 49.2955V59.5H137.295V49.2955H131.295ZM144.5 46.2955H134.295V52.2955H144.5V46.2955ZM148 42.7955C148 44.7285 146.433 46.2955 144.5 46.2955V52.2955C149.747 52.2955 154 48.0422 154 42.7955H148ZM148 41.3182V42.7955H154V41.3182H148ZM144.5 37.8182C146.433 37.8182 148 39.3852 148 41.3182H154C154 36.0715 149.747 31.8182 144.5 31.8182V37.8182ZM134.295 37.8182H144.5V31.8182H134.295V37.8182ZM131.295 23.5V34.8182H137.295V23.5H131.295ZM127.795 20C129.728 20 131.295 21.567 131.295 23.5H137.295C137.295 18.2533 133.042 14 127.795 14V20ZM126.318 20H127.795V14H126.318V20ZM119.818 37.8182H134.295V31.8182H119.818V37.8182ZM122.818 49.2955V34.8182H116.818V49.2955H122.818ZM134.295 46.2955H119.818V52.2955H134.295V46.2955ZM131.295 34.8182V49.2955H137.295V34.8182H131.295Z" fill="black" mask="url(#path-6-inside-1_7_19)"/>
<path d="M126.165 22.265C126.561 21.666 127.439 21.666 127.835 22.265L129.441 24.6993C129.88 25.3641 129.403 26.25 128.606 26.25H125.394C124.597 26.25 124.12 25.3641 124.559 24.6993L126.165 22.265Z" fill="black"/>
<path d="M107.265 42.8347C106.666 42.4394 106.666 41.5606 107.265 41.1653L109.699 39.5591C110.364 39.1204 111.25 39.5973 111.25 40.3938V43.6062C111.25 44.4027 110.364 44.8796 109.699 44.4409L107.265 42.8347Z" fill="black"/>
<path d="M127.835 59.735C127.439 60.334 126.561 60.334 126.165 59.735L124.559 57.3007C124.12 56.6359 124.597 55.75 125.394 55.75H128.606C129.403 55.75 129.88 56.6359 129.441 57.3007L127.835 59.735Z" fill="black"/>
<path d="M145.735 41.1653C146.334 41.5606 146.334 42.4394 145.735 42.8347L143.301 44.4409C142.636 44.8796 141.75 44.4027 141.75 43.6062V40.3938C141.75 39.5973 142.636 39.1204 143.301 39.5591L145.735 41.1653Z" fill="black"/>
</svg>
