<svg width="177" height="83" viewBox="0 0 177 83" fill="none" xmlns="http://www.w3.org/2000/svg">
<path fill-rule="evenodd" clip-rule="evenodd" d="M38 0C17.0132 0 0 17.0132 0 38V45C0 65.9868 17.0132 83 38 83H139C159.987 83 177 65.9868 177 45V38C177 17.0132 159.987 0 139 0H38ZM29.5 50C34.1944 50 38 46.1944 38 41.5C38 36.8056 34.1944 33 29.5 33C24.8056 33 21 36.8056 21 41.5C21 46.1944 24.8056 50 29.5 50ZM55 25.5C55 30.1944 51.1944 34 46.5 34C41.8056 34 38 30.1944 38 25.5C38 20.8056 41.8056 17 46.5 17C51.1944 17 55 20.8056 55 25.5ZM63.5 50C68.1944 50 72 46.1944 72 41.5C72 36.8056 68.1944 33 63.5 33C58.8056 33 55 36.8056 55 41.5C55 46.1944 58.8056 50 63.5 50ZM55 57.5C55 62.1944 51.1944 66 46.5 66C41.8056 66 38 62.1944 38 57.5C38 52.8056 41.8056 49 46.5 49C51.1944 49 55 52.8056 55 57.5ZM119.818 23.5C119.818 19.9101 122.728 17 126.318 17H127.795C131.385 17 134.295 19.9101 134.295 23.5V34.8182H119.818V23.5ZM119.818 49.2955H108.5C104.91 49.2955 102 46.3853 102 42.7955V41.3182C102 37.7283 104.91 34.8182 108.5 34.8182H119.818V49.2955ZM134.295 49.2955V59.5C134.295 63.0899 131.385 66 127.795 66H126.318C122.728 66 119.818 63.0899 119.818 59.5V49.2955H134.295ZM134.295 49.2955H144.5C148.09 49.2955 151 46.3853 151 42.7955V41.3182C151 37.7283 148.09 34.8182 144.5 34.8182H134.295V49.2955ZM126.165 22.265C126.561 21.666 127.439 21.666 127.835 22.265L129.441 24.6993C129.88 25.3641 129.403 26.25 128.606 26.25H125.394C124.597 26.25 124.12 25.3641 124.559 24.6993L126.165 22.265ZM107.265 41.1653C106.666 41.5606 106.666 42.4394 107.265 42.8347L109.699 44.4409C110.364 44.8796 111.25 44.4027 111.25 43.6062V40.3938C111.25 39.5973 110.364 39.1204 109.699 39.5591L107.265 41.1653ZM127.835 59.735C127.439 60.334 126.561 60.334 126.165 59.735L124.559 57.3007C124.12 56.6359 124.597 55.75 125.394 55.75H128.606C129.403 55.75 129.88 56.6359 129.441 57.3007L127.835 59.735ZM145.735 42.8347C146.334 42.4394 146.334 41.5606 145.735 41.1653L143.301 39.5591C142.636 39.1204 141.75 39.5973 141.75 40.3938V43.6062C141.75 44.4027 142.636 44.8796 143.301 44.4409L145.735 42.8347Z" fill="white"/>
</svg>
