<svg width="104" height="131" viewBox="0 0 104 131" fill="none" xmlns="http://www.w3.org/2000/svg">
<path d="M2.01526 103C1.32151 89.4418 24.5153 76.5 24.5153 76.5C27.0153 74 29.0153 67 29.0153 67H64.5153L77.5153 76.5C77.5153 76.5 104.116 92.6282 101.015 107.5C98.3448 120.309 87.5897 127.499 74.5153 128C56.0723 128.706 39.8792 130.098 22.0153 126.5C10.2015 124.12 2.63108 115.035 2.01526 103Z" fill="#FEDE33" stroke="black" stroke-width="4" stroke-linecap="round"/>
<circle cx="49" cy="43" r="40" fill="#FEDE33"/>
<path d="M58.8275 81.0545C31.8275 83.5545 16.2099 74.2607 10.3275 52.0545C4.28097 29.2287 19.5732 6.03264 42.3275 2.55447C58.8293 0.0320444 72.076 6.15906 81.3275 20.0545C93.8513 38.8649 88.3275 63.5545 68.8275 76.5545" stroke="black" stroke-width="4" stroke-linecap="round"/>
<path d="M94.6049 25.1948C58.4852 16.9258 38.2277 16.9443 2.10489 25.1948C0.956799 45.0783 9.29518 57.2187 24.1049 56.1948C34.9944 55.4419 40.2329 47.7998 44.6049 37.1948C46.9469 33.8642 48.4313 33.6157 51.6049 37.1948C57.2883 46.7057 61.5615 55.5981 72.6049 56.1948C87.4283 56.9958 95.2685 47.8218 94.6049 25.1948Z" fill="black" stroke="black" stroke-width="4"/>
<path d="M51.1211 38.1349C49.1798 35.5082 48.0915 35.0767 46.1502 38.1349C41.8927 46.8176 31.2375 51.4493 31.2375 51.4493C29.9571 51.9105 28 54.0107 31.2375 57.5943C44.6467 72.4376 63.8961 62.237 66.4481 58.6185C69 55 66.7265 51.6475 65.6196 51.4493C65.6196 51.4493 54.1337 45.4747 51.1211 38.1349Z" fill="#FF9900" stroke="#060606" stroke-width="3"/>
<path d="M80 25C75.3137 33.9821 72.6863 39.0179 68 48" stroke="white" stroke-width="4" stroke-linecap="round"/>
<path d="M71 24L61 44" stroke="white" stroke-width="3" stroke-linecap="round"/>
<path d="M35 23L23 50" stroke="white" stroke-width="4" stroke-linecap="round"/>
</svg>
