<svg width="258" height="187" viewBox="0 0 258 187" fill="none" xmlns="http://www.w3.org/2000/svg">
<mask id="path-1-inside-1_7_70" fill="white">
<path fill-rule="evenodd" clip-rule="evenodd" d="M188 0C186.895 0 186 0.89543 186 2V23H165C163.895 23 163 23.8954 163 25V45H96V25C96 23.8954 95.1046 23 94 23H73V2C73 0.895431 72.1046 0 71 0H49C47.8954 0 47 0.89543 47 2V23C47 24.1046 47.8954 25 49 25H70V45H49C47.8954 45 47 45.8954 47 47V69H26C24.8954 69 24 69.8954 24 71V91H2C0.895431 91 0 91.8954 0 93V162C0 163.105 0.895431 164 2 164H25C26.1046 164 27 163.105 27 162V117H48V161C48 162.105 48.8954 163 50 163H70V185C70 186.105 70.8954 187 72 187H117C118.105 187 119 186.105 119 185V163C119 161.895 118.105 161 117 161H72V141H186V161H141C139.895 161 139 161.895 139 163V185C139 186.105 139.895 187 141 187H186C187.105 187 188 186.105 188 185V163H210C211.105 163 212 162.105 212 161V117H232V162C232 163.105 232.895 164 234 164H256C257.105 164 258 163.105 258 162V93C258 91.8954 257.105 91 256 91H235V71C235 69.8954 234.105 69 233 69H212V47C212 45.8954 211.105 45 210 45H188V25H209C210.105 25 211 24.1046 211 23V2C211 0.895431 210.105 0 209 0H188ZM94 91H73V71H94V91ZM165 91H186V71H165V91Z"/>
</mask>
<path fill-rule="evenodd" clip-rule="evenodd" d="M188 0C186.895 0 186 0.89543 186 2V23H165C163.895 23 163 23.8954 163 25V45H96V25C96 23.8954 95.1046 23 94 23H73V2C73 0.895431 72.1046 0 71 0H49C47.8954 0 47 0.89543 47 2V23C47 24.1046 47.8954 25 49 25H70V45H49C47.8954 45 47 45.8954 47 47V69H26C24.8954 69 24 69.8954 24 71V91H2C0.895431 91 0 91.8954 0 93V162C0 163.105 0.895431 164 2 164H25C26.1046 164 27 163.105 27 162V117H48V161C48 162.105 48.8954 163 50 163H70V185C70 186.105 70.8954 187 72 187H117C118.105 187 119 186.105 119 185V163C119 161.895 118.105 161 117 161H72V141H186V161H141C139.895 161 139 161.895 139 163V185C139 186.105 139.895 187 141 187H186C187.105 187 188 186.105 188 185V163H210C211.105 163 212 162.105 212 161V117H232V162C232 163.105 232.895 164 234 164H256C257.105 164 258 163.105 258 162V93C258 91.8954 257.105 91 256 91H235V71C235 69.8954 234.105 69 233 69H212V47C212 45.8954 211.105 45 210 45H188V25H209C210.105 25 211 24.1046 211 23V2C211 0.895431 210.105 0 209 0H188ZM94 91H73V71H94V91ZM165 91H186V71H165V91Z" fill="white"/>
<path d="M186 23V26H189V23H186ZM163 45V48H166V45H163ZM96 45H93V48H96V45ZM73 23H70V26H73V23ZM70 25H73V22H70V25ZM70 45V48H73V45H70ZM47 69V72H50V69H47ZM24 91V94H27V91H24ZM27 117V114H24V117H27ZM48 117H51V114H48V117ZM70 163H73V160H70V163ZM72 161H69V164H72V161ZM72 141V138H69V141H72ZM186 141H189V138H186V141ZM186 161V164H189V161H186ZM188 163V160H185V163H188ZM212 117V114H209V117H212ZM232 117H235V114H232V117ZM235 91H232V94H235V91ZM212 69H209V72H212V69ZM188 45H185V48H188V45ZM188 25V22H185V25H188ZM73 91H70V94H73V91ZM94 91V94H97V91H94ZM73 71V68H70V71H73ZM94 71H97V68H94V71ZM186 91V94H189V91H186ZM165 91H162V94H165V91ZM186 71H189V68H186V71ZM165 71V68H162V71H165ZM189 2C189 2.55229 188.552 3 188 3V-3C185.239 -3 183 -0.761426 183 2H189ZM189 23V2H183V23H189ZM165 26H186V20H165V26ZM166 25C166 25.5523 165.552 26 165 26V20C162.239 20 160 22.2386 160 25H166ZM166 45V25H160V45H166ZM96 48H163V42H96V48ZM93 25V45H99V25H93ZM94 26C93.4477 26 93 25.5523 93 25H99C99 22.2386 96.7614 20 94 20V26ZM73 26H94V20H73V26ZM70 2V23H76V2H70ZM71 3C70.4477 3 70 2.55229 70 2H76C76 -0.761425 73.7614 -3 71 -3V3ZM49 3H71V-3H49V3ZM50 2C50 2.55229 49.5523 3 49 3V-3C46.2386 -3 44 -0.761426 44 2H50ZM50 23V2H44V23H50ZM49 22C49.5523 22 50 22.4477 50 23H44C44 25.7614 46.2386 28 49 28V22ZM70 22H49V28H70V22ZM73 45V25H67V45H73ZM49 48H70V42H49V48ZM50 47C50 47.5523 49.5523 48 49 48V42C46.2386 42 44 44.2386 44 47H50ZM50 69V47H44V69H50ZM26 72H47V66H26V72ZM27 71C27 71.5523 26.5523 72 26 72V66C23.2386 66 21 68.2386 21 71H27ZM27 91V71H21V91H27ZM2 94H24V88H2V94ZM3 93C3 93.5523 2.55229 94 2 94V88C-0.761425 88 -3 90.2386 -3 93H3ZM3 162V93H-3V162H3ZM2 161C2.55229 161 3 161.448 3 162H-3C-3 164.761 -0.761423 167 2 167V161ZM25 161H2V167H25V161ZM24 162C24 161.448 24.4477 161 25 161V167C27.7614 167 30 164.761 30 162H24ZM24 117V162H30V117H24ZM48 114H27V120H48V114ZM51 161V117H45V161H51ZM50 160C50.5523 160 51 160.448 51 161H45C45 163.761 47.2386 166 50 166V160ZM70 160H50V166H70V160ZM73 185V163H67V185H73ZM72 184C72.5523 184 73 184.448 73 185H67C67 187.761 69.2386 190 72 190V184ZM117 184H72V190H117V184ZM116 185C116 184.448 116.448 184 117 184V190C119.761 190 122 187.761 122 185H116ZM116 163V185H122V163H116ZM117 164C116.448 164 116 163.552 116 163H122C122 160.239 119.761 158 117 158V164ZM72 164H117V158H72V164ZM69 141V161H75V141H69ZM186 138H72V144H186V138ZM189 161V141H183V161H189ZM141 164H186V158H141V164ZM142 163C142 163.552 141.552 164 141 164V158C138.239 158 136 160.239 136 163H142ZM142 185V163H136V185H142ZM141 184C141.552 184 142 184.448 142 185H136C136 187.761 138.239 190 141 190V184ZM186 184H141V190H186V184ZM185 185C185 184.448 185.448 184 186 184V190C188.761 190 191 187.761 191 185H185ZM185 163V185H191V163H185ZM210 160H188V166H210V160ZM209 161C209 160.448 209.448 160 210 160V166C212.761 166 215 163.761 215 161H209ZM209 117V161H215V117H209ZM232 114H212V120H232V114ZM235 162V117H229V162H235ZM234 161C234.552 161 235 161.448 235 162H229C229 164.761 231.239 167 234 167V161ZM256 161H234V167H256V161ZM255 162C255 161.448 255.448 161 256 161V167C258.761 167 261 164.761 261 162H255ZM255 93V162H261V93H255ZM256 94C255.448 94 255 93.5523 255 93H261C261 90.2386 258.761 88 256 88V94ZM235 94H256V88H235V94ZM232 71V91H238V71H232ZM233 72C232.448 72 232 71.5523 232 71H238C238 68.2386 235.761 66 233 66V72ZM212 72H233V66H212V72ZM209 47V69H215V47H209ZM210 48C209.448 48 209 47.5523 209 47H215C215 44.2386 212.761 42 210 42V48ZM188 48H210V42H188V48ZM185 25V45H191V25H185ZM209 22H188V28H209V22ZM208 23C208 22.4477 208.448 22 209 22V28C211.761 28 214 25.7614 214 23H208ZM208 2V23H214V2H208ZM209 3C208.448 3 208 2.55229 208 2H214C214 -0.761425 211.761 -3 209 -3V3ZM188 3H209V-3H188V3ZM73 94H94V88H73V94ZM70 71V91H76V71H70ZM94 68H73V74H94V68ZM97 91V71H91V91H97ZM186 88H165V94H186V88ZM183 71V91H189V71H183ZM165 74H186V68H165V74ZM168 91V71H162V91H168Z" fill="white" mask="url(#path-1-inside-1_7_70)"/>
</svg>
